<?xml version="1.0" encoding="UTF-8"?>
<svg width="75px" height="91px" viewBox="0 0 75 91" version="1.1" xmlns="http://www.w3.org/2000/svg" xmlns:xlink="http://www.w3.org/1999/xlink">
    <!-- Generator: Sketch 56.3 (81716) - https://sketch.com -->
    <title>invoice</title>
    <desc>Created with Sketch.</desc>
    <g id="Page-1" stroke="none" stroke-width="1" fill="none" fill-rule="evenodd">
        <g id="07.Payment.01b-Payment-Success-(Courses)" transform="translate(-158.000000, -140.000000)">
            <g id="Group-3" transform="translate(20.000000, 100.000000)">
                <g id="invoice" transform="translate(138.000000, 40.000000)">
                    <path d="M0.517265625,20.1724805 L0.517265625,3.10341797 C0.5221875,1.39148438 1.90875,0.00509765625 3.62068359,0 L45.5172656,0 L65.6897461,20.1724805 L65.6897461,60.2690625 L59.4827344,90 L3.62068359,90 C1.90875,89.9949023 0.5221875,88.6085156 0.517265625,86.896582 L0.517265625,20.1724805 Z" id="Path" fill="#E2EAED" fill-rule="nonzero"></path>
                    <path d="M45.5172656,0 L45.5172656,17.0688867 C45.5172656,18.7829297 46.9068164,20.1723047 48.6206836,20.1723047 L65.6895703,20.1723047 L45.5172656,0 Z" id="Path" fill="#70C5E8" fill-rule="nonzero"></path>
                    <g id="Group" transform="translate(12.089844, 27.773438)" fill="#B1CBD6" fill-rule="nonzero">
                        <path d="M37.3928906,3.26109375 L1.70332031,3.26109375 C0.846386719,3.26109375 0.151523437,2.56640625 0.151523437,1.70929687 C0.151523437,0.8521875 0.846210937,0.1575 1.70332031,0.1575 L37.3928906,0.1575 C38.2498242,0.1575 38.9446875,0.8521875 38.9446875,1.70929687 C38.9446875,2.56640625 38.2498242,3.26109375 37.3928906,3.26109375 Z" id="Path"></path>
                        <path d="M37.3928906,12.5713477 L1.70332031,12.5713477 C0.846386719,12.5713477 0.151523437,11.8766602 0.151523437,11.0195508 C0.151523437,10.1624414 0.846210937,9.46775391 1.70332031,9.46775391 L37.3928906,9.46775391 C38.2498242,9.46775391 38.9446875,10.1624414 38.9446875,11.0195508 C38.9446875,11.8766602 38.2498242,12.5713477 37.3928906,12.5713477 Z" id="Path"></path>
                        <path d="M37.3928906,21.8817773 L1.70332031,21.8817773 C0.846386719,21.8817773 0.151523437,21.1870898 0.151523437,20.3299805 C0.151523437,19.4728711 0.846210937,18.7781836 1.70332031,18.7781836 L37.3928906,18.7781836 C38.2498242,18.7781836 38.9446875,19.4728711 38.9446875,20.3299805 C38.9446875,21.1870898 38.2498242,21.8817773 37.3928906,21.8817773 Z" id="Path"></path>
                        <path d="M23.4274219,31.1920313 L1.70332031,31.1920313 C0.846386719,31.1920313 0.151523437,30.4973438 0.151523437,29.6402344 C0.151523437,28.783125 0.846210937,28.0884375 1.70332031,28.0884375 L23.4274219,28.0884375 C24.2843555,28.0884375 24.9792187,28.783125 24.9792187,29.6402344 C24.9792187,30.4973438 24.2843555,31.1920313 23.4274219,31.1920313 Z" id="Path"></path>
                    </g>
                    <g id="Group-5" transform="translate(44.000000, 60.000000)">
                        <circle id="Oval" fill="#5DD5CA" cx="15.5" cy="15.5" r="15.5"></circle>
                        <path d="M11.2375,14.3375 C10.595469,13.4814586 9.38104136,13.307969 8.525,13.95 C7.66895864,14.592031 7.49546898,15.8064586 8.1375,16.6625 L11.7703125,21.50625 C12.5453125,22.5395833 14.0953125,22.5395833 14.8703125,21.50625 L22.8625,10.85 C23.504531,9.99395864 23.3310414,8.77953102 22.475,8.1375 C21.6189586,7.49546898 20.404531,7.66895864 19.7625,8.525 L13.3203125,17.1145833 L11.2375,14.3375 Z" id="Path" fill="#FFFFFF" fill-rule="nonzero"></path>
                    </g>
                    <g id="Group-5" transform="translate(44.000000, 60.000000)">
                        <circle id="Oval" fill="#DF5858" cx="15.5" cy="15.5" r="15.5"></circle>
                        <g id="x" transform="translate(10.500000, 10.500000)" stroke="#FFFFFF" stroke-linecap="round" stroke-linejoin="round" stroke-width="3.5">
                            <path d="M10.5,0 L0,10.5" id="Path"></path>
                            <path d="M0,0 L10.5,10.5" id="Path"></path>
                        </g>
                    </g>
                </g>
            </g>
        </g>
    </g>
</svg>