<svg xmlns="http://www.w3.org/2000/svg" width="75" height="91" viewBox="0 0 75 91">
    <g fill="none" fill-rule="evenodd">
        <g>
            <g>
                <g>
                    <path fill="#E2EAED" fill-rule="nonzero" d="M.517 20.172V3.103C.522 1.391 1.91.005 3.621 0h41.896L65.69 20.172V60.27L59.483 90H3.62C1.909 89.995.522 88.609.517 86.897V20.172z" transform="translate(-158 -140) translate(20 100) translate(138 40)"/>
                    <path fill="#70C5E8" fill-rule="nonzero" d="M45.517 0v17.069c0 1.714 1.39 3.103 3.104 3.103H65.69L45.517 0z" transform="translate(-158 -140) translate(20 100) translate(138 40)"/>
                    <g fill="#B1CBD6" fill-rule="nonzero">
                        <path d="M37.393 3.261H1.703C.846 3.261.152 2.566.152 1.71.152.852.846.157 1.703.157h35.69c.857 0 1.552.695 1.552 1.552 0 .857-.695 1.552-1.552 1.552zM37.393 12.571H1.703c-.857 0-1.551-.694-1.551-1.551 0-.858.694-1.552 1.551-1.552h35.69c.857 0 1.552.694 1.552 1.552 0 .857-.695 1.551-1.552 1.551zM37.393 21.882H1.703c-.857 0-1.551-.695-1.551-1.552 0-.857.694-1.552 1.551-1.552h35.69c.857 0 1.552.695 1.552 1.552 0 .857-.695 1.552-1.552 1.552zM23.427 31.192H1.703c-.857 0-1.551-.695-1.551-1.552 0-.857.694-1.552 1.551-1.552h21.724c.857 0 1.552.695 1.552 1.552 0 .857-.695 1.552-1.552 1.552z" transform="translate(-158 -140) translate(20 100) translate(138 40) translate(12.09 27.773)"/>
                    </g>
                    <g transform="translate(-158 -140) translate(20 100) translate(138 40) translate(44 60)">
                        <circle cx="15.5" cy="15.5" r="15.5" fill="#5DD5CA"/>
                        <path fill="#FFF" fill-rule="nonzero" d="M11.238 14.338c-.643-.857-1.857-1.03-2.713-.388-.856.642-1.03 1.856-.388 2.713l3.633 4.843c.775 1.034 2.325 1.034 3.1 0l7.993-10.656c.642-.856.468-2.07-.388-2.713-.856-.642-2.07-.468-2.713.388l-6.442 8.59-2.082-2.777z"/>
                    </g>
                </g>
            </g>
        </g>
    </g>
</svg>
